# xmcd CD database file
#
# Track frame offsets:
#	182
#	8695
#	20317
#	43090
#	73982
#	80625
#	89945
#	106007
#	110470
#	119830
#	137357
#	147970
#	171782
#	181982
#	184367
#	188282
#	208982
#	218657
#	240632
#	246707
#	257732
#	261325
#
# Disc length: 3659 seconds
#
# Revision: 3
# Processed by: cddbd v1.5.2PL0 Copyright (c) Steve Scherf et al.
# Submitted via: CDex 1.51
#
DISCID=4c0e4916
DTITLE=The English Concert and Choir - Gloria
DYEAR=1993
DGENRE=Baroque
TTITLE0=Scarlatti - O di Betlemme altera - 1. Introduzione (Allegro)
TTITLE1=Scarlatti  - Recitativo: O di Betlemme altera - 3. Aria: Dal bel seno d'una stella (Andante)
TTITLE2=Scarlatti -  Recitativo: Presa d'uomo la forma - 5. Aria: L'autor d'ogni mio bene (Andante)
TTITLE3=Scarlatti  - Recitativo: Fortunati pastori! - 7. Pastorale: Toccr la prima sorte a voi, pastori
TTITLE4=Corelli - Concerto grosso in G minor, op. 6 no. 8 "Christmas Concerto" - 1. Vivace - Grave. Arcate, sostenuto e come st`
TTITLE5=Corelli - Concerto grosso in G minor, op. 6 no. 8 "Christmas Concerto" - - 2. Allegro
TTITLE6=Corelli - Concerto grosso in G minor, op. 6 no. 8 "Christmas Concerto" - - 3. Adagio - Allegro - Adagio
TTITLE7=Corelli - Concerto grosso in G minor, op. 6 no. 8 "Christmas Concerto" - - 4. Vivace
TTITLE8=Corelli - Concerto grosso in G minor, op. 6 no. 8 "Christmas Concerto" - - 5. Allegro
TTITLE9=Corelli - Concerto grosso in G minor, op. 6 no. 8 "Christmas Concerto" - - 6. Largo. Pastorale ad libitum
TTITLE10=Vivaldi - Gloria RV 589 - 1. Gloria in excelsis Deo (Allegro)
TTITLE11=Vivaldi - Gloria RV 589 - 2. Et in terra pax hominibus (Andante)
TTITLE12=Vivaldi - Gloria RV 589 - 3. Laudamus te (Allegro)
TTITLE13=Vivaldi - Gloria RV 589 - 4. Gratias agimus tibi (Adagio)
TTITLE14=Vivaldi - Gloria RV 589 - 5. Propter magnam gloriam tuam (Allegro)
TTITLE15=Vivaldi - Gloria RV 589 - 6. Domine Deus, Rex caelestis (Largo)
TTITLE16=Vivaldi - Gloria RV 589 - 7. Domine Fili unigenite (Allegro)
TTITLE17=Vivaldi - Gloria RV 589 - 8. Domine Deus, Agnus Dei (Adagio)
TTITLE18=Vivaldi - Gloria RV 589 - 9. Qui tollis peccata mundi (Adagio)
TTITLE19=Vivaldi - Gloria RV 589 - 10. Qui sedes ad dexteram Patris (Allegro)
TTITLE20=Vivaldi - Gloria RV 589 - 11. Quoniam tu solus Sanctus (Allegro)
TTITLE21=Vivaldi - Gloria RV 589 - 12. Cum Sancto Spiritu (Allegro)
EXTD=Allesandro Scarlatti (1660-1725]\nArcangelo Corelli (1653-1713]\nAntonio Vivaldi (1678-1741]\n\nNancy Argenta, Jennifer Smith, Catherine Wyn Rogers\n\nCHOIR OF THE ENGLISH CONCERT\nTHE ENGLISH CONCERT\non authentic instruments\nDirected from the har
EXTD=piscord and organ by\nTREVOR PINNOCK YEAR: 1993
EXTT0=
EXTT1=
EXTT2=
EXTT3=
EXTT4=
EXTT5=
EXTT6=
EXTT7=
EXTT8=
EXTT9=
EXTT10=
EXTT11=
EXTT12=
EXTT13=
EXTT14=
EXTT15=
EXTT16=
EXTT17=
EXTT18=
EXTT19=
EXTT20=
EXTT21=
PLAYORDER=
